<svg width="6" height="10" viewBox="0 0 6 10" fill="none" xmlns="http://www.w3.org/2000/svg">
<path fill-rule="evenodd" clip-rule="evenodd" d="M0.849288 1.01604C0.966475 0.898993 1.12533 0.833252 1.29095 0.833252C1.45658 0.833252 1.61543 0.898993 1.73262 1.01604L5.27429 4.5577C5.39133 4.67489 5.45707 4.83374 5.45707 4.99937C5.45707 5.16499 5.39133 5.32385 5.27429 5.44103L1.73262 8.9827C1.61414 9.0931 1.45744 9.1532 1.29552 9.15035C1.1336 9.14749 0.979114 9.0819 0.864603 8.96739C0.750092 8.85288 0.684498 8.69839 0.681641 8.53647C0.678784 8.37455 0.738888 8.21785 0.849288 8.09937L3.94929 4.99937L0.849288 1.89937C0.732245 1.78218 0.666504 1.62333 0.666504 1.4577C0.666504 1.29208 0.732245 1.13322 0.849288 1.01604Z" fill="white"/>
</svg>
