<svg width="16" height="18" viewBox="0 0 16 18" fill="none" xmlns="http://www.w3.org/2000/svg">
<path d="M15.9463 14.4457L13.9823 10.234C12.8978 11.813 11.2046 12.9374 9.24459 13.2784L10.8887 16.804C11.0989 17.2551 11.7494 17.225 11.9187 16.7591L12.7614 14.4443L12.935 14.3633L15.2499 15.206C15.7144 15.3765 16.1562 14.8951 15.9463 14.4457ZM8.00004 0C4.61545 0 1.86158 2.7537 1.86158 6.13846C1.86158 9.52322 4.61549 12.2769 8.00004 12.2769C11.3846 12.2769 14.1385 9.52322 14.1385 6.13846C14.1385 2.7537 11.3847 0 8.00004 0ZM10.9869 5.68743L9.89838 6.74851L10.1556 8.24716C10.2342 8.70471 9.75214 9.04847 9.34577 8.83537L8.00008 8.12798L6.65438 8.83533C6.24567 9.04994 5.76634 8.70214 5.84454 8.24713L6.10177 6.74847L5.0133 5.6874C4.68249 5.36488 4.86609 4.8019 5.32254 4.73557L6.82698 4.51704L7.49984 3.15389C7.70345 2.73992 8.29657 2.73955 8.50041 3.15389L9.17327 4.51704L10.6777 4.73557C11.1341 4.80186 11.3177 5.36488 10.9869 5.68743ZM2.01782 10.234L0.0538219 14.4457C-0.157075 14.8972 0.288735 15.3759 0.750267 15.2059L3.06508 14.3632L3.23875 14.4442L4.08144 16.759C4.25039 17.224 4.90081 17.256 5.11144 16.8039L6.75553 13.2784C4.79551 12.9374 3.10231 11.8131 2.01782 10.234Z" fill="#FEFEFE"/>
</svg>
