<svg width="70" height="68" viewBox="0 0 70 68" fill="none" xmlns="http://www.w3.org/2000/svg">
<path d="M35.0014 67.9169C54.2393 67.9169 69.8347 52.7319 69.8347 34.0002C69.8347 15.2685 54.2393 0.0834961 35.0014 0.0834961C15.7634 0.0834961 0.167969 15.2685 0.167969 34.0002C0.167969 52.7319 15.7634 67.9169 35.0014 67.9169Z" fill="url(#paint0_radial_72_3950)"/>
<path d="M51.4161 29.6376L30.0964 17.6527C29.3099 17.2106 28.4178 16.9778 27.5096 16.9778C26.6015 16.9778 25.7093 17.2105 24.9228 17.6527C24.1363 18.0948 23.4832 18.7307 23.0291 19.4965C22.575 20.2623 22.336 21.131 22.336 22.0152V45.9851C22.3326 46.8707 22.5696 47.7414 23.0228 48.5091C23.4761 49.2768 24.1297 49.9143 24.9173 50.357C25.7049 50.7998 26.5987 51.0321 27.5082 51.0304C28.4176 51.0287 29.3105 50.7932 30.0964 50.3475L51.4161 38.3626C52.2025 37.9204 52.8556 37.2845 53.3097 36.5188C53.7638 35.753 54.0028 34.8843 54.0028 34.0001C54.0028 33.1159 53.7638 32.2472 53.3097 31.4814C52.8556 30.7157 52.2025 30.0798 51.4161 29.6376Z" fill="url(#paint1_linear_72_3950)"/>
<defs>
<radialGradient id="paint0_radial_72_3950" cx="0" cy="0" r="1" gradientUnits="userSpaceOnUse" gradientTransform="translate(23.6141 19.1135) scale(52.983 51.5887)">
<stop stop-color="#4793EB"/>
<stop offset="1" stop-color="#2F81ED"/>
</radialGradient>
<linearGradient id="paint1_linear_72_3950" x1="19.9463" y1="22.2491" x2="43.4402" y2="46.3778" gradientUnits="userSpaceOnUse">
<stop stop-color="white"/>
<stop offset="1" stop-color="#EDF1F2"/>
</linearGradient>
</defs>
</svg>
