<svg width="21" height="19" viewBox="0 0 21 19" fill="none" xmlns="http://www.w3.org/2000/svg">
<path d="M15.3541 18.75C15.0651 18.75 14.775 18.681 14.506 18.54L10.6181 16.505C10.5441 16.466 10.456 16.466 10.382 16.505L6.497 18.538C5.878 18.862 5.1421 18.808 4.5761 18.396C4.0131 17.985 3.73508 17.304 3.85308 16.617L4.59405 12.316C4.60805 12.235 4.581 12.153 4.523 12.096L1.28203 8.95001C0.801035 8.48301 0.630089 7.79598 0.837089 7.15698C1.04409 6.51798 1.58601 6.06099 2.25201 5.96399L6.73406 5.31598C6.81606 5.30398 6.88605 5.25299 6.92205 5.17999L8.86504 1.26202C9.17504 0.637024 9.80108 0.249023 10.4991 0.249023C11.1971 0.249023 11.8231 0.637024 12.1331 1.26202L14.075 5.17902C14.112 5.25302 14.1821 5.30398 14.2641 5.31598L18.746 5.96399C19.412 6.05999 19.9541 6.51698 20.1611 7.15698C20.3681 7.79598 20.197 8.48301 19.716 8.95001L16.476 12.095C16.416 12.153 16.3901 12.235 16.4041 12.316L17.1451 16.619C17.2631 17.305 16.987 17.986 16.423 18.396C16.105 18.631 15.7301 18.75 15.3541 18.75ZM10.5001 14.976C10.7791 14.976 11.059 15.042 11.313 15.175L15.2011 17.21C15.3561 17.292 15.482 17.229 15.542 17.185C15.602 17.142 15.697 17.043 15.668 16.875L14.9271 12.571C14.8291 12.001 15.019 11.421 15.434 11.019L18.673 7.875C18.77 7.781 18.754 7.67497 18.736 7.62097C18.718 7.56597 18.668 7.47001 18.533 7.45001L14.0511 6.802C13.4801 6.72 12.9871 6.36201 12.7321 5.84601L10.7911 1.92999C10.7141 1.77399 10.576 1.75098 10.501 1.75098C10.426 1.75098 10.2881 1.77399 10.2111 1.92999L8.2691 5.84698C8.0151 6.36198 7.5221 6.72 6.9511 6.802L2.46905 7.45001C2.33405 7.47001 2.28304 7.56497 2.26604 7.62097C2.24804 7.67597 2.23303 7.781 2.32903 7.875L5.56902 11.02C5.98302 11.421 6.173 12.001 6.075 12.571L5.33404 16.872C5.30504 17.041 5.40111 17.14 5.46111 17.184C5.52311 17.228 5.64501 17.29 5.80401 17.209L9.68902 15.176C9.94102 15.043 10.2211 14.976 10.5001 14.976Z" fill="#25314C"/>
</svg>
