<svg width="61" height="12" viewBox="0 0 61 12" fill="none" xmlns="http://www.w3.org/2000/svg">
<g clip-path="url(#clip0_89_1229)">
<path d="M6.94835 1.52872C6.86412 1.35805 6.6903 1.25 6.49998 1.25C6.30966 1.25 6.13584 1.35805 6.05161 1.52872L4.78704 4.09102L1.95937 4.50191C1.77102 4.52928 1.61455 4.6612 1.55574 4.8422C1.49692 5.02321 1.54597 5.22191 1.68226 5.35476L3.72838 7.34923L3.24536 10.1655C3.21318 10.3531 3.2903 10.5426 3.44427 10.6545C3.59824 10.7664 3.80237 10.7811 3.97083 10.6926L6.49998 9.36292L9.02912 10.6926C9.19758 10.7811 9.40171 10.7664 9.55569 10.6545C9.70966 10.5426 9.78677 10.3531 9.7546 10.1655L9.27157 7.34923L11.3177 5.35476C11.454 5.22191 11.503 5.02321 11.4442 4.8422C11.3854 4.6612 11.2289 4.52928 11.0406 4.50191L8.21292 4.09102L6.94835 1.52872Z" fill="#FAAD14"/>
</g>
<g clip-path="url(#clip1_89_1229)">
<path d="M18.9483 1.52872C18.8641 1.35805 18.6903 1.25 18.5 1.25C18.3097 1.25 18.1358 1.35805 18.0516 1.52872L16.787 4.09102L13.9594 4.50191C13.771 4.52928 13.6145 4.6612 13.5557 4.8422C13.4969 5.02321 13.546 5.22191 13.6823 5.35476L15.7284 7.34923L15.2454 10.1655C15.2132 10.3531 15.2903 10.5426 15.4443 10.6545C15.5982 10.7664 15.8024 10.7811 15.9708 10.6926L18.5 9.36292L21.0291 10.6926C21.1976 10.7811 21.4017 10.7664 21.5557 10.6545C21.7097 10.5426 21.7868 10.3531 21.7546 10.1655L21.2716 7.34923L23.3177 5.35476C23.454 5.22191 23.503 5.02321 23.4442 4.8422C23.3854 4.6612 23.2289 4.52928 23.0406 4.50191L20.2129 4.09102L18.9483 1.52872Z" fill="#FAAD14"/>
</g>
<g clip-path="url(#clip2_89_1229)">
<path d="M30.9483 1.52872C30.8641 1.35805 30.6903 1.25 30.5 1.25C30.3097 1.25 30.1358 1.35805 30.0516 1.52872L28.787 4.09102L25.9594 4.50191C25.771 4.52928 25.6145 4.6612 25.5557 4.8422C25.4969 5.02321 25.546 5.22191 25.6823 5.35476L27.7284 7.34923L27.2454 10.1655C27.2132 10.3531 27.2903 10.5426 27.4443 10.6545C27.5982 10.7664 27.8024 10.7811 27.9708 10.6926L30.5 9.36292L33.0291 10.6926C33.1976 10.7811 33.4017 10.7664 33.5557 10.6545C33.7097 10.5426 33.7868 10.3531 33.7546 10.1655L33.2716 7.34923L35.3177 5.35476C35.454 5.22191 35.503 5.02321 35.4442 4.8422C35.3854 4.6612 35.2289 4.52928 35.0406 4.50191L32.2129 4.09102L30.9483 1.52872Z" fill="#FAAD14"/>
</g>
<g clip-path="url(#clip3_89_1229)">
<path d="M42.9483 1.52872C42.8641 1.35805 42.6903 1.25 42.5 1.25C42.3097 1.25 42.1358 1.35805 42.0516 1.52872L40.787 4.09102L37.9594 4.50191C37.771 4.52928 37.6145 4.6612 37.5557 4.8422C37.4969 5.02321 37.546 5.22191 37.6823 5.35476L39.7284 7.34923L39.2454 10.1655C39.2132 10.3531 39.2903 10.5426 39.4443 10.6545C39.5982 10.7664 39.8024 10.7811 39.9708 10.6926L42.5 9.36292L45.0291 10.6926C45.1976 10.7811 45.4017 10.7664 45.5557 10.6545C45.7097 10.5426 45.7868 10.3531 45.7546 10.1655L45.2716 7.34923L47.3177 5.35476C47.454 5.22191 47.503 5.02321 47.4442 4.8422C47.3854 4.6612 47.2289 4.52928 47.0406 4.50191L44.2129 4.09102L42.9483 1.52872Z" fill="#FAAD14"/>
</g>
<g clip-path="url(#clip4_89_1229)">
<path d="M54.9483 1.52872C54.8641 1.35805 54.6903 1.25 54.5 1.25C54.3097 1.25 54.1358 1.35805 54.0516 1.52872L52.787 4.09102L49.9594 4.50191C49.771 4.52928 49.6145 4.6612 49.5557 4.8422C49.4969 5.02321 49.546 5.22191 49.6823 5.35476L51.7284 7.34923L51.2454 10.1655C51.2132 10.3531 51.2903 10.5426 51.4443 10.6545C51.5982 10.7664 51.8024 10.7811 51.9708 10.6926L54.5 9.36292L57.0291 10.6926C57.1976 10.7811 57.4017 10.7664 57.5557 10.6545C57.7097 10.5426 57.7868 10.3531 57.7546 10.1655L57.2716 7.34923L59.3177 5.35476C59.454 5.22191 59.503 5.02321 59.4442 4.8422C59.3854 4.6612 59.2289 4.52928 59.0406 4.50191L56.2129 4.09102L54.9483 1.52872Z" fill="#FAAD14"/>
</g>
<defs>
<clipPath id="clip0_89_1229">
<rect width="10" height="10" fill="white" transform="translate(1.5 1)"/>
</clipPath>
<clipPath id="clip1_89_1229">
<rect width="10" height="10" fill="white" transform="translate(13.5 1)"/>
</clipPath>
<clipPath id="clip2_89_1229">
<rect width="10" height="10" fill="white" transform="translate(25.5 1)"/>
</clipPath>
<clipPath id="clip3_89_1229">
<rect width="10" height="10" fill="white" transform="translate(37.5 1)"/>
</clipPath>
<clipPath id="clip4_89_1229">
<rect width="10" height="10" fill="white" transform="translate(49.5 1)"/>
</clipPath>
</defs>
</svg>
