<svg width="74" height="74" viewBox="0 0 74 74" fill="none" xmlns="http://www.w3.org/2000/svg">
<rect width="74" height="74" rx="37" fill="white"/>
<g clip-path="url(#clip0_72_3957)">
<path d="M46.2212 35.8867C45.7 31.6344 42.3439 28.2867 38.0902 27.7763C37.724 27.7345 37.3557 27.7136 36.987 27.7135C33.2278 27.7193 29.843 29.9912 28.4134 33.468C26.9839 36.9448 27.7918 40.9405 30.4598 43.5889C31.1621 44.2615 31.7232 45.0674 32.1103 45.9595C32.4974 46.8515 32.7027 47.8118 32.7142 48.7842V49.8571H41.2856V48.7787C41.2888 47.8248 41.4829 46.8811 41.8563 46.0033C42.2297 45.1255 42.7749 44.3313 43.4599 43.6674C44.4909 42.6727 45.2769 41.4523 45.7561 40.1021C46.2352 38.752 46.3944 37.3091 46.2211 35.887V35.8867H46.2212ZM37 57C37.443 56.9995 37.8751 56.8619 38.2368 56.6061C38.5985 56.3504 38.8723 55.9889 39.0205 55.5714H34.9796C35.1278 55.9889 35.4015 56.3504 35.7632 56.6061C36.125 56.8619 36.557 56.9995 37 57ZM33.4286 53.4286C33.4288 53.618 33.5042 53.7995 33.6381 53.9334C33.772 54.0673 33.9535 54.1426 34.1429 54.1429H39.8572C40.0466 54.1426 40.2281 54.0673 40.362 53.9334C40.4959 53.7995 40.5712 53.618 40.5715 53.4286V51.2857H33.4286V53.4286ZM37 23.4286C37.789 23.4286 38.4286 22.789 38.4286 22V18.4286C38.4286 17.6396 37.789 17 37 17C36.211 17 35.5714 17.6396 35.5714 18.4286V22C35.5714 22.789 36.211 23.4286 37 23.4286ZM24.9437 26.9641C25.509 27.504 26.3988 27.504 26.9641 26.9641C27.0968 26.8314 27.2021 26.6739 27.2739 26.5006C27.3457 26.3272 27.3827 26.1415 27.3827 25.9538C27.3827 25.7662 27.3457 25.5804 27.2739 25.4071C27.2021 25.2337 27.0968 25.0762 26.9641 24.9436L24.4386 22.4185C24.306 22.2858 24.1485 22.1806 23.9752 22.1087C23.8019 22.0369 23.6162 22 23.4286 22C23.241 22 23.0552 22.0369 22.8819 22.1087C22.7086 22.1806 22.5511 22.2858 22.4185 22.4185C22.2858 22.5511 22.1806 22.7086 22.1087 22.8819C22.0369 23.0552 22 23.241 22 23.4286C22 23.6162 22.0369 23.802 22.1087 23.9753C22.1806 24.1486 22.2858 24.3061 22.4185 24.4387L24.9437 26.9641ZM23.4286 37C23.4286 36.211 22.789 35.5714 22 35.5714H18.4286C17.6399 35.5722 17.0008 36.2113 17 37C17.0008 37.7887 17.6399 38.4278 18.4286 38.4286H22C22.789 38.4286 23.4286 37.789 23.4286 37ZM26.3247 46.664C26.0821 46.5991 25.8267 46.5994 25.5843 46.6647C25.3418 46.73 25.1209 46.858 24.9437 47.0359L22.4186 49.5614C22.2859 49.694 22.1806 49.8515 22.1088 50.0248C22.037 50.1981 22 50.3839 22 50.5715C22 50.7591 22.037 50.9449 22.1088 51.1182C22.1806 51.2915 22.2859 51.4489 22.4186 51.5816C22.9838 52.1215 23.8735 52.1215 24.4387 51.5816L26.9641 49.0565C27.142 48.8793 27.2701 48.6583 27.3354 48.4158C27.4007 48.1734 27.4009 47.918 27.3361 47.6754C27.2712 47.4328 27.1436 47.2116 26.9661 47.034C26.7885 46.8564 26.5673 46.7288 26.3247 46.664ZM49.0563 47.0359C48.8791 46.8581 48.6581 46.7301 48.4157 46.6648C48.1733 46.5995 47.9179 46.5993 47.6753 46.6641C47.4328 46.7289 47.2116 46.8565 47.034 47.0341C46.8565 47.2116 46.7288 47.4328 46.664 47.6753C46.5991 47.9179 46.5994 48.1733 46.6647 48.4157C46.73 48.6582 46.858 48.8791 47.0359 49.0563L49.5614 51.5814C50.1266 52.1213 51.0163 52.1213 51.5815 51.5814C51.7142 51.4488 51.8194 51.2913 51.8913 51.118C51.9631 50.9447 52 50.7589 52 50.5713C52 50.3837 51.9631 50.198 51.8913 50.0246C51.8194 49.8513 51.7142 49.6939 51.5815 49.5612L49.0563 47.0359ZM55.5714 35.5714H52C51.211 35.5714 50.5714 36.211 50.5714 37C50.5714 37.789 51.211 38.4286 52 38.4286H55.5714C56.3604 38.4286 57 37.789 57 37C57 36.211 56.3604 35.5714 55.5714 35.5714ZM49.0563 26.9641L51.5814 24.4386C51.7587 24.2613 51.8863 24.0404 51.9512 23.7982C52.0161 23.556 52.0161 23.301 51.9512 23.0588C51.8863 22.8166 51.7588 22.5957 51.5814 22.4184C51.4041 22.2411 51.1832 22.1136 50.941 22.0487C50.6988 21.9838 50.4438 21.9838 50.2016 22.0487C49.9594 22.1136 49.7385 22.2411 49.5612 22.4184L47.0358 24.9435C46.9031 25.0762 46.7978 25.2337 46.726 25.407C46.6542 25.5803 46.6173 25.7661 46.6173 25.9538C46.6173 26.1414 46.6542 26.3272 46.726 26.5005C46.7978 26.6738 46.9031 26.8313 47.0358 26.964C47.6012 27.504 48.4911 27.504 49.0563 26.9641Z" fill="#F9C80E"/>
</g>
<defs>
<clipPath id="clip0_72_3957">
<rect width="40" height="40" fill="white" transform="translate(17 17)"/>
</clipPath>
</defs>
</svg>
