<svg width="16" height="15" viewBox="0 0 16 15" fill="none" xmlns="http://www.w3.org/2000/svg">
<path fill-rule="evenodd" clip-rule="evenodd" d="M7.69466 0.259277C3.59072 0.259277 0.289062 3.56094 0.289062 7.66487C0.289062 10.9357 2.41817 13.7128 5.34955 14.7002C5.71983 14.7619 5.84326 14.5459 5.84326 14.3299C5.84326 14.1448 5.84326 13.6819 5.84326 13.0648C3.77586 13.5276 3.34387 12.0774 3.34387 12.0774C3.00445 11.2134 2.51074 10.9974 2.51074 10.9974C1.83189 10.5345 2.57245 10.5345 2.57245 10.5345C3.31301 10.5963 3.71415 11.306 3.71415 11.306C4.36214 12.4477 5.44212 12.1082 5.87412 11.9231C5.93583 11.4294 6.12097 11.1208 6.33697 10.9357C4.70156 10.7505 2.97359 10.1025 2.97359 7.26374C2.97359 6.46146 3.2513 5.78262 3.74501 5.28891C3.68329 5.10377 3.40558 4.36321 3.80672 3.31409C3.80672 3.31409 4.42385 3.12895 5.84326 4.0855C6.42954 3.93122 7.07753 3.83865 7.69466 3.83865C8.31179 3.83865 8.95978 3.93122 9.54606 4.0855C10.9655 3.12895 11.5826 3.31409 11.5826 3.31409C11.9837 4.33235 11.7369 5.07291 11.6443 5.28891C12.1072 5.81347 12.4157 6.46146 12.4157 7.26374C12.4157 10.1025 10.6878 10.7197 9.02149 10.9048C9.2992 11.1208 9.5152 11.5837 9.5152 12.2625C9.5152 13.2499 9.5152 14.0522 9.5152 14.2991C9.5152 14.4842 9.63863 14.731 10.0398 14.6693C12.9711 13.7128 15.1003 10.9357 15.1003 7.66487C15.1003 3.56094 11.7986 0.259277 7.69466 0.259277Z" fill="white"/>
</svg>
