<svg width="16" height="16" viewBox="0 0 16 16" fill="none" xmlns="http://www.w3.org/2000/svg">
<path d="M7.99975 1.6543C10.0668 1.6543 10.3116 1.66204 11.1282 1.69928C11.6192 1.70529 12.1055 1.79544 12.566 1.96582C12.9 2.09461 13.2032 2.2919 13.4563 2.54499C13.7094 2.79808 13.9067 3.10136 14.0355 3.43531C14.2059 3.89582 14.296 4.38213 14.3021 4.8731C14.3389 5.68969 14.347 5.93448 14.347 8.00158C14.347 10.0687 14.3393 10.3135 14.3021 11.1301C14.296 11.621 14.2059 12.1073 14.0355 12.5678C13.9067 12.9018 13.7094 13.2051 13.4563 13.4582C13.2032 13.7113 12.9 13.9086 12.566 14.0373C12.1055 14.2077 11.6192 14.2979 11.1282 14.3039C10.312 14.3408 10.0672 14.3489 7.99975 14.3489C5.93228 14.3489 5.68749 14.3411 4.87127 14.3039C4.38029 14.2979 3.89398 14.2077 3.43348 14.0373C3.09953 13.9086 2.79625 13.7113 2.54316 13.4582C2.29007 13.2051 2.09278 12.9018 1.96399 12.5678C1.79361 12.1073 1.70345 11.621 1.69744 11.1301C1.66058 10.3135 1.65247 10.0687 1.65247 8.00158C1.65247 5.93448 1.66021 5.68969 1.69744 4.8731C1.70345 4.38213 1.79361 3.89582 1.96399 3.43531C2.09278 3.10136 2.29007 2.79808 2.54316 2.54499C2.79625 2.2919 3.09953 2.09461 3.43348 1.96582C3.89398 1.79544 4.38029 1.70529 4.87127 1.69928C5.68786 1.66241 5.93265 1.6543 7.99975 1.6543ZM7.99975 0.259277C5.89837 0.259277 5.63367 0.268125 4.80786 0.305729C4.1653 0.31851 3.52955 0.440173 2.92767 0.665545C2.41136 0.860076 1.94371 1.16492 1.55735 1.55882C1.1631 1.94531 0.857994 2.41323 0.663342 2.92988C0.437971 3.53176 0.316308 4.1675 0.303527 4.81006C0.26666 5.63513 0.257812 5.89983 0.257812 8.00121C0.257812 10.1026 0.26666 10.3673 0.304264 11.1931C0.317045 11.8357 0.438709 12.4714 0.66408 13.0733C0.858516 13.5899 1.16337 14.0578 1.55735 14.4443C1.94392 14.8383 2.41183 15.1432 2.92841 15.3376C3.53029 15.563 4.16603 15.6847 4.8086 15.6974C5.6344 15.7343 5.898 15.7439 8.00049 15.7439C10.103 15.7439 10.3666 15.735 11.1924 15.6974C11.8349 15.6847 12.4707 15.563 13.0726 15.3376C13.5867 15.1383 14.0536 14.8339 14.4433 14.4439C14.8331 14.0539 15.1372 13.5868 15.3362 13.0725C15.5615 12.4707 15.6832 11.8349 15.696 11.1924C15.7328 10.3673 15.7417 10.1026 15.7417 8.00121C15.7417 5.89983 15.7328 5.63513 15.6952 4.80932C15.6825 4.16676 15.5608 3.53102 15.3354 2.92914C15.141 2.41256 14.8361 1.94465 14.4421 1.55808C14.0556 1.1641 13.5877 0.859243 13.0711 0.664807C12.4692 0.439436 11.8335 0.317772 11.1909 0.304992C10.3658 0.268125 10.1011 0.259277 7.99975 0.259277Z" fill="white"/>
<path d="M8.00301 4.02734C7.2167 4.02734 6.44805 4.26051 5.79425 4.69736C5.14046 5.13422 4.63088 5.75513 4.32998 6.48159C4.02907 7.20805 3.95033 8.00742 4.10374 8.77863C4.25714 9.54983 4.63579 10.2582 5.19179 10.8142C5.7478 11.3702 6.4562 11.7489 7.2274 11.9023C7.9986 12.0557 8.79798 11.977 9.52444 11.676C10.2509 11.3751 10.8718 10.8656 11.3087 10.2118C11.7455 9.55798 11.9787 8.78932 11.9787 8.00301C11.9787 6.9486 11.5598 5.93737 10.8142 5.19179C10.0687 4.44621 9.05743 4.02734 8.00301 4.02734ZM8.00301 10.5837C7.49261 10.5837 6.99367 10.4323 6.56928 10.1487C6.1449 9.86518 5.81413 9.46213 5.61881 8.99058C5.42349 8.51903 5.37238 8.00015 5.47195 7.49955C5.57153 6.99896 5.81731 6.53913 6.17822 6.17822C6.53913 5.81731 6.99896 5.57153 7.49955 5.47195C8.00015 5.37238 8.51903 5.42348 8.99058 5.61881C9.46214 5.81413 9.86518 6.1449 10.1487 6.56928C10.4323 6.99367 10.5837 7.49261 10.5837 8.00301C10.5837 8.68744 10.3118 9.34384 9.82781 9.8278C9.34384 10.3118 8.68744 10.5837 8.00301 10.5837Z" fill="white"/>
<path d="M12.1341 4.79849C12.6472 4.79849 13.0631 4.38255 13.0631 3.86946C13.0631 3.35637 12.6472 2.94043 12.1341 2.94043C11.621 2.94043 11.2051 3.35637 11.2051 3.86946C11.2051 4.38255 11.621 4.79849 12.1341 4.79849Z" fill="white"/>
</svg>
