<svg width="21" height="21" viewBox="0 0 21 21" fill="none" xmlns="http://www.w3.org/2000/svg">
<path d="M11.6222 0.904609L13.8879 5.47443C14.0582 5.8186 14.3872 6.05662 14.7687 6.11146L19.9988 6.8674C20.9578 7.00623 21.3405 8.18225 20.6464 8.85658L16.8652 12.5258C16.5887 12.7941 16.4627 13.1803 16.528 13.5594L17.3925 18.5808C17.5675 19.5993 16.4977 20.3763 15.5807 19.8968L11.0447 17.5226C10.7041 17.3441 10.298 17.3441 9.95853 17.5226L5.42602 19.8944C4.50785 20.3751 3.43448 19.5969 3.61065 18.5761L4.47525 13.5594C4.54059 13.1803 4.41451 12.7941 4.13801 12.5258L0.356885 8.85658C-0.338448 8.18225 0.0441384 7.00623 1.00431 6.8674L6.23451 6.11146C6.61484 6.05662 6.94385 5.8186 7.11535 5.47443L9.38103 0.904609C9.8372 -0.0228906 11.1626 -0.0228906 11.6222 0.904609Z" fill="#FF9B2F"/>
</svg>
