<svg width="24" height="25" viewBox="0 0 24 25" fill="none" xmlns="http://www.w3.org/2000/svg">
<rect x="0.5" y="1" width="23" height="23" rx="3.5" stroke="#49B3F0"/>
<path fill-rule="evenodd" clip-rule="evenodd" d="M16.7807 10.7193C16.9211 10.86 17 11.0506 17 11.2493C17 11.4481 16.9211 11.6387 16.7807 11.7793L12.5307 16.0293C12.39 16.1698 12.1994 16.2487 12.0007 16.2487C11.8019 16.2487 11.6113 16.1698 11.4707 16.0293L7.22066 11.7793C7.08818 11.6372 7.01606 11.4491 7.01948 11.2548C7.02291 11.0605 7.10163 10.8751 7.23904 10.7377C7.37645 10.6003 7.56184 10.5216 7.75614 10.5182C7.95044 10.5147 8.13848 10.5869 8.28066 10.7193L12.0007 14.4393L15.7207 10.7193C15.8613 10.5789 16.0519 10.5 16.2507 10.5C16.4494 10.5 16.64 10.5789 16.7807 10.7193Z" fill="#49B3F0"/>
</svg>
