<svg width="14" height="11" viewBox="0 0 14 11" fill="none" xmlns="http://www.w3.org/2000/svg">
<path d="M13.0925 1.5517C12.6136 1.76454 12.1081 1.89756 11.576 1.97737C12.1081 1.65812 12.5338 1.15263 12.72 0.540724C12.2145 0.833375 11.6558 1.04621 11.0439 1.17923C10.565 0.673747 9.87331 0.354492 9.12838 0.354492C7.69174 0.354492 6.52113 1.52509 6.52113 2.96174C6.52113 3.17458 6.54774 3.36081 6.60095 3.54704C4.44598 3.44062 2.50384 2.40305 1.20022 0.80677C0.98738 1.20584 0.854357 1.63151 0.854357 2.1104C0.854357 3.01495 1.30664 3.81309 2.02496 4.29197C1.59929 4.26537 1.20022 4.15895 0.827753 3.97272V3.99932C0.827753 5.27634 1.73231 6.34052 2.92952 6.57997C2.71668 6.63318 2.47724 6.65978 2.2378 6.65978C2.07817 6.65978 1.89194 6.63318 1.73231 6.60657C2.07817 7.64415 3.03593 8.41568 4.17993 8.41568C3.27538 9.1074 2.15798 9.53308 0.934171 9.53308C0.721334 9.53308 0.508498 9.53308 0.322266 9.50647C1.49287 10.2514 2.8497 10.6771 4.33956 10.6771C9.15499 10.6771 11.7888 6.68638 11.7888 3.22779C11.7888 3.12137 11.7888 2.98835 11.7888 2.88193C12.2943 2.53607 12.7466 2.08379 13.0925 1.5517Z" fill="white"/>
</svg>
